<svg width="183" height="184" viewBox="0 0 183 184" fill="none" xmlns="http://www.w3.org/2000/svg">
<path d="M183 92.5C183 116.767 173.36 140.041 156.2 157.2C139.041 174.36 115.767 184 91.5 184C67.2327 184 43.9593 174.36 26.7997 157.2C9.64016 140.041 3.66426e-06 116.767 0 92.5L91.5 92.5H183Z" fill="#FDC027"/>
<path d="M0 91.5C2.12152e-06 67.2327 9.64015 43.9593 26.7997 26.7997C43.9593 9.64015 67.2327 -2.89385e-07 91.5 0L91.5 91.5L0 91.5Z" fill="#E5E5E5"/>
<path d="M183 92.5C183 80.484 180.633 68.5858 176.035 57.4845C171.437 46.3832 164.697 36.2963 156.2 27.7997C147.704 19.3032 137.617 12.5633 126.516 7.96502C115.414 3.36672 103.516 0.999999 91.5 1L91.5 92.5H183Z" fill="white"/>
<line x1="177.757" y1="63.6529" x2="152.757" y2="92.6529" stroke="#4B3D84" stroke-width="2"/>
<line x1="181.757" y1="77.6529" x2="168.699" y2="92.8011" stroke="#4B3D84" stroke-width="2"/>
<line x1="108.816" y1="3.65294" x2="92.4927" y2="22.5882" stroke="#4B3D84" stroke-width="2"/>
<line x1="121.782" y1="6.65289" x2="92.4016" y2="40.7382" stroke="#4B3D84" stroke-width="2"/>
<line x1="134.708" y1="12.1983" x2="92.2181" y2="61.4932" stroke="#4B3D84" stroke-width="2"/>
<line x1="146.313" y1="19.2643" x2="92.2018" y2="82.0415" stroke="#4B3D84" stroke-width="2"/>
<line x1="155.712" y1="27.7215" x2="99.8029" y2="92.5843" stroke="#4B3D84" stroke-width="2"/>
<line x1="164.627" y1="38.5403" x2="117.887" y2="92.7655" stroke="#4B3D84" stroke-width="2"/>
<line x1="172.611" y1="49.3599" x2="135.904" y2="91.9459" stroke="#4B3D84" stroke-width="2"/>
</svg>
